<!DOCTYPE svg PUBLIC "-//W3C//DTD SVG 1.1//EN" "http://www.w3.org/Graphics/SVG/1.1/DTD/svg11.dtd">
<!-- Uploaded to: SVG Repo, www.svgrepo.com, Transformed by: SVG Repo Mixer Tools -->
<svg fill="#3a9b91" width="800px" height="800px" viewBox="0 0 24 24" xmlns="http://www.w3.org/2000/svg" stroke="#3a9b91" stroke-width="0.00024000000000000003">
<g id="SVGRepo_bgCarrier" stroke-width="0"/>
<g id="SVGRepo_tracerCarrier" stroke-linecap="round" stroke-linejoin="round"/>
<g id="SVGRepo_iconCarrier"> <g id="bag-add"> <path d="M17.5,7H17a5.0071,5.0071,0,0,0-5-5A5.0059,5.0059,0,0,0,7,7H6.5A2.5026,2.5026,0,0,0,4,9.5v10A2.5026,2.5026,0,0,0,6.5,22h6a.5.5,0,0,0,0-1h-6A1.5017,1.5017,0,0,1,5,19.5V9.5A1.5017,1.5017,0,0,1,6.5,8h11A1.5017,1.5017,0,0,1,19,9.5v5a.5.5,0,0,0,1,0v-5A2.5026,2.5026,0,0,0,17.5,7ZM12,3a4.0078,4.0078,0,0,1,4,4H8A4.0042,4.0042,0,0,1,12,3Z"/> <path d="M20,19.5a.5.5,0,0,1-.5.5H18v1.5a.5.5,0,0,1-1,0V20H15.5a.5.5,0,0,1,0-1H17V17.5a.5.5,0,0,1,1,0V19h1.5A.5.5,0,0,1,20,19.5Z"/> </g> </g>
</svg>